<?xml version="1.0" encoding="utf-8"?>
<svg xmlns="http://www.w3.org/2000/svg" xmlns:xlink="http://www.w3.org/1999/xlink" version="1.1" id="Warstwa_1" x="0px" y="0px" width="200px" height="75px" viewBox="0 0 200 75" xml:space="preserve">
<g>
	<g>
		<path fill-rule="evenodd" clip-rule="evenodd" fill="#00285E" d="M126.514,66.751c-0.62,0-1.127,0.189-1.515,0.569    c-0.391,0.381-0.586,0.969-0.586,1.766c0,0.781,0.202,1.366,0.603,1.757c0.404,0.391,0.901,0.587,1.498,0.587    c0.599,0,1.095-0.194,1.49-0.582c0.395-0.387,0.59-0.981,0.59-1.785c0-0.787-0.191-1.369-0.575-1.747    C127.637,66.938,127.135,66.751,126.514,66.751z"></path>
		<path fill-rule="evenodd" clip-rule="evenodd" fill="#00285E" d="M41.603,66.751c-0.62,0-1.127,0.189-1.516,0.569    c-0.391,0.381-0.586,0.969-0.586,1.766c0,0.781,0.202,1.366,0.604,1.757c0.403,0.391,0.901,0.587,1.498,0.587    c0.599,0,1.095-0.194,1.489-0.582c0.395-0.387,0.591-0.981,0.591-1.785c0-0.787-0.191-1.369-0.575-1.747    C42.725,66.938,42.223,66.751,41.603,66.751z"></path>
		<path fill-rule="evenodd" clip-rule="evenodd" fill="#00285E" d="M118.959,67.233c-0.199-0.168-0.439-0.277-0.726-0.329    c-0.214-0.041-0.626-0.061-1.237-0.061h-0.694v4.497h1.146c0.489,0,0.846-0.032,1.064-0.101c0.222-0.068,0.401-0.171,0.541-0.309    c0.142-0.138,0.258-0.354,0.35-0.651c0.093-0.296,0.138-0.687,0.138-1.172c0-0.503-0.048-0.899-0.143-1.19    C119.305,67.628,119.158,67.399,118.959,67.233z"></path>
		<path fill-rule="evenodd" clip-rule="evenodd" fill="#00285E" d="M102.131,69.606c-0.213-0.054-0.646-0.081-1.299-0.081h-1.233    v1.815h1.416c0.62,0,1.018-0.023,1.193-0.071c0.176-0.047,0.323-0.142,0.444-0.282c0.118-0.142,0.178-0.318,0.178-0.535    c0-0.223-0.064-0.404-0.191-0.548C102.511,69.76,102.341,69.66,102.131,69.606z"></path>
		<path fill-rule="evenodd" clip-rule="evenodd" fill="#00285E" d="M101.725,68.371c0.26-0.029,0.462-0.11,0.61-0.241    c0.146-0.132,0.219-0.311,0.219-0.536c0-0.201-0.058-0.364-0.179-0.489c-0.12-0.125-0.264-0.202-0.434-0.233    c-0.169-0.03-0.656-0.046-1.461-0.046h-0.882v1.57h1.006C101.208,68.396,101.581,68.388,101.725,68.371z"></path>
		<path fill-rule="evenodd" clip-rule="evenodd" fill="#00285E" d="M184.435,66.751c-0.62,0-1.127,0.189-1.516,0.569    c-0.391,0.381-0.585,0.969-0.585,1.766c0,0.781,0.201,1.366,0.603,1.757c0.403,0.391,0.901,0.587,1.498,0.587    c0.599,0,1.095-0.194,1.489-0.582c0.395-0.387,0.591-0.981,0.591-1.785c0-0.787-0.191-1.369-0.576-1.747    C185.558,66.938,185.055,66.751,184.435,66.751z"></path>
		<path fill-rule="evenodd" clip-rule="evenodd" fill="#00285E" d="M0,63.486V75h194.483V63.486H0z M16.24,72.486h-1.534    l-3.044-4.43v4.43h-1.42v-6.792h1.484l3.093,4.535v-4.535h1.421V72.486z M24.527,71.754c-0.634,0.566-1.492,0.848-2.578,0.848    c-1.095,0-1.957-0.279-2.591-0.838c-0.721-0.64-1.081-1.517-1.081-2.632c0-0.81,0.161-1.476,0.487-1.998    c0.324-0.523,0.749-0.914,1.272-1.171c0.523-0.256,1.159-0.384,1.905-0.384c1.082,0,1.962,0.304,2.645,0.912    c0.681,0.608,1.021,1.476,1.021,2.6C25.608,70.227,25.248,71.115,24.527,71.754z M34.88,72.486h-1.622l-1.509-5.078l-1.496,5.078    h-1.654l-1.803-6.792h1.564l1.131,4.665l1.385-4.665h1.817l1.326,4.744l1.163-4.744h1.535L34.88,72.486z M44.18,71.754    c-0.633,0.566-1.491,0.848-2.577,0.848c-1.095,0-1.957-0.279-2.591-0.838c-0.721-0.64-1.082-1.517-1.082-2.632    c0-0.81,0.161-1.476,0.487-1.998c0.324-0.523,0.749-0.914,1.273-1.171c0.523-0.256,1.158-0.384,1.905-0.384    c1.082,0,1.962,0.304,2.645,0.912c0.681,0.608,1.021,1.476,1.021,2.6C45.262,70.227,44.901,71.115,44.18,71.754z M52.353,72.076    c-0.536,0.35-1.197,0.525-1.98,0.525c-0.985,0-1.783-0.279-2.396-0.838c-0.706-0.646-1.058-1.517-1.058-2.612    c0-1.159,0.354-2.065,1.064-2.72c0.616-0.568,1.441-0.853,2.483-0.853c0.846,0,1.554,0.213,2.125,0.639    c0.405,0.304,0.703,0.753,0.893,1.349l-1.509,0.324c-0.097-0.368-0.288-0.649-0.576-0.846c-0.287-0.196-0.626-0.294-1.015-0.294    c-0.558,0-1.013,0.179-1.365,0.537c-0.352,0.357-0.527,0.949-0.527,1.774c0,0.855,0.171,1.464,0.515,1.825    c0.344,0.362,0.79,0.542,1.339,0.542c0.404,0,0.752-0.115,1.044-0.345c0.294-0.23,0.506-0.596,0.635-1.096l1.479,0.421    C53.271,71.17,52.89,71.726,52.353,72.076z M61.028,72.486h-6.143V71.25l3.973-4.406h-3.526v-1.149h5.533v1.065l-4.139,4.581    h4.302V72.486z M68.478,72.486h-5.748v-6.792h5.61v1.149h-4.088v1.506h3.799v1.144h-3.799v1.848h4.226V72.486z M75.521,72.004    c-0.493,0.401-1.264,0.603-2.312,0.603c-1.853,0-2.885-0.776-3.093-2.329l1.489-0.132c0.168,0.868,0.717,1.303,1.648,1.303    c0.46,0,0.822-0.088,1.086-0.267c0.267-0.178,0.397-0.397,0.397-0.659c0-0.155-0.045-0.286-0.138-0.394    c-0.092-0.109-0.233-0.198-0.423-0.268c-0.188-0.07-0.644-0.186-1.369-0.35c-0.65-0.146-1.127-0.302-1.427-0.473    c-0.303-0.169-0.543-0.393-0.722-0.669c-0.178-0.276-0.266-0.574-0.266-0.893c0-0.369,0.113-0.703,0.341-1.001    c0.229-0.295,0.545-0.52,0.946-0.672c0.404-0.149,0.899-0.226,1.492-0.226c0.889,0,1.581,0.177,2.079,0.533    c0.5,0.354,0.765,0.863,0.792,1.524l-1.525,0.06c-0.068-0.365-0.213-0.62-0.436-0.766c-0.222-0.144-0.539-0.217-0.949-0.217    s-0.728,0.063-0.948,0.19c-0.224,0.126-0.335,0.283-0.335,0.473c0,0.185,0.101,0.34,0.303,0.466    c0.202,0.129,0.665,0.267,1.389,0.418c0.768,0.165,1.321,0.337,1.663,0.517c0.341,0.181,0.603,0.415,0.783,0.699    c0.181,0.286,0.271,0.633,0.271,1.041C76.26,71.107,76.013,71.603,75.521,72.004z M84.293,72.486h-1.534l-3.044-4.43v4.43h-1.42    v-6.792h1.484l3.093,4.535v-4.535h1.421V72.486z M92.385,72.486h-5.748v-6.792h5.61v1.149h-4.089v1.506h3.799v1.144h-3.799v1.848    h4.227V72.486z M103.925,71.77c-0.322,0.342-0.704,0.553-1.144,0.633c-0.307,0.055-1.018,0.084-2.132,0.084h-2.573v-6.792h3.026    c0.824,0,1.405,0.056,1.74,0.168c0.335,0.11,0.618,0.307,0.851,0.588c0.229,0.28,0.346,0.6,0.346,0.954    c0,0.327-0.1,0.622-0.297,0.887c-0.197,0.264-0.453,0.46-0.766,0.586c0.448,0.118,0.798,0.318,1.051,0.604    c0.256,0.282,0.383,0.629,0.383,1.037C104.41,71.011,104.247,71.43,103.925,71.77z M112.449,69.262    c0,0.911-0.066,1.57-0.197,1.975c-0.133,0.407-0.43,0.735-0.893,0.987c-0.463,0.253-1.075,0.378-1.833,0.378    c-0.787,0-1.403-0.104-1.846-0.313c-0.442-0.207-0.762-0.501-0.962-0.879c-0.199-0.378-0.298-1.075-0.298-2.092v-3.623h1.522    v3.679c0,0.572,0.017,0.943,0.055,1.116c0.066,0.3,0.228,0.531,0.48,0.695c0.254,0.163,0.589,0.245,1.003,0.245    c0.353,0,0.64-0.059,0.863-0.174c0.221-0.115,0.373-0.276,0.454-0.482c0.082-0.204,0.123-0.645,0.123-1.322v-3.757h1.527V69.262z     M120.85,70.691c-0.18,0.433-0.409,0.776-0.687,1.031c-0.276,0.253-0.609,0.442-1.002,0.57s-0.896,0.193-1.513,0.193h-2.865    v-6.792h2.783c0.704,0,1.236,0.059,1.595,0.174s0.688,0.312,0.989,0.587c0.303,0.273,0.539,0.631,0.713,1.069    c0.172,0.439,0.257,0.983,0.257,1.635C121.12,69.747,121.03,70.257,120.85,70.691z M129.092,71.754    c-0.633,0.566-1.491,0.848-2.578,0.848c-1.094,0-1.957-0.279-2.59-0.838c-0.722-0.64-1.082-1.517-1.082-2.632    c0-0.81,0.161-1.476,0.487-1.998c0.324-0.523,0.749-0.914,1.272-1.171c0.523-0.256,1.159-0.384,1.906-0.384    c1.081,0,1.961,0.304,2.644,0.912c0.681,0.608,1.022,1.476,1.022,2.6C130.174,70.227,129.813,71.115,129.092,71.754z     M139.445,72.486h-1.623l-1.509-5.078l-1.496,5.078h-1.654l-1.803-6.792h1.564l1.131,4.665l1.385-4.665h1.817l1.326,4.744    l1.163-4.744h1.535L139.445,72.486z M148.813,72.486h-1.534l-3.044-4.43v4.43h-1.421v-6.792h1.485l3.093,4.535v-4.535h1.421    V72.486z M152.63,72.486h-1.522v-6.792h1.522V72.486z M159.991,72.076c-0.537,0.35-1.198,0.525-1.981,0.525    c-0.985,0-1.783-0.279-2.395-0.838c-0.707-0.646-1.059-1.517-1.059-2.612c0-1.159,0.354-2.065,1.064-2.72    c0.616-0.568,1.442-0.853,2.483-0.853c0.846,0,1.554,0.213,2.125,0.639c0.405,0.304,0.703,0.753,0.893,1.349l-1.509,0.324    c-0.097-0.368-0.288-0.649-0.575-0.846c-0.288-0.196-0.626-0.294-1.015-0.294c-0.559,0-1.014,0.179-1.365,0.537    c-0.353,0.357-0.528,0.949-0.528,1.774c0,0.855,0.172,1.464,0.515,1.825c0.344,0.362,0.791,0.542,1.34,0.542    c0.403,0,0.751-0.115,1.043-0.345c0.294-0.23,0.507-0.596,0.635-1.096l1.479,0.421C160.909,71.17,160.527,71.726,159.991,72.076z     M168.641,66.844h-2.238v5.643h-1.522v-5.643h-2.245v-1.149h6.006V66.844z M177.712,72.486h-1.622l-1.509-5.078l-1.496,5.078    h-1.654l-1.803-6.792h1.563l1.132,4.665l1.385-4.665h1.817l1.326,4.744l1.163-4.744h1.535L177.712,72.486z M187.012,71.754    c-0.633,0.566-1.491,0.848-2.577,0.848c-1.095,0-1.957-0.279-2.591-0.838c-0.721-0.64-1.081-1.517-1.081-2.632    c0-0.81,0.16-1.476,0.486-1.998c0.325-0.523,0.75-0.914,1.272-1.171c0.524-0.256,1.159-0.384,1.906-0.384    c1.082,0,1.962,0.304,2.645,0.912c0.68,0.608,1.021,1.476,1.021,2.6C188.094,70.227,187.733,71.115,187.012,71.754z"></path>
		<path fill-rule="evenodd" clip-rule="evenodd" fill="#00285E" d="M21.949,66.751c-0.62,0-1.127,0.189-1.515,0.569    c-0.392,0.381-0.587,0.969-0.587,1.766c0,0.781,0.202,1.366,0.604,1.757c0.403,0.391,0.901,0.587,1.498,0.587    c0.599,0,1.095-0.194,1.489-0.582c0.396-0.387,0.591-0.981,0.591-1.785c0-0.787-0.191-1.369-0.575-1.747    C23.071,66.938,22.569,66.751,21.949,66.751z"></path>
	</g>
	<polygon fill-rule="evenodd" clip-rule="evenodd" fill="#00285E" points="175.258,25.093 175.258,58.451 182.426,58.451    182.426,44.247 186.506,44.247 186.506,58.451 193.895,58.451 193.895,25.093 186.506,25.093 186.506,37.575 182.426,37.575    182.426,25.093  "></polygon>
	<path fill-rule="evenodd" clip-rule="evenodd" fill="#00285E" d="M166.18,45.372v5.165c0,4.735-1.103,4.305-2.096,4.305   c-0.992,0-1.984,0.216-1.984-4.305v-17.54c0-3.873,0.992-3.551,1.874-3.551c1.323,0,2.206-0.322,2.206,3.551v4.412h6.506v-3.766   c0-9.9-3.419-9.362-8.932-9.362h-0.441c-6.727,0-8.491-0.431-8.491,9.362v16.033c0,10.33,3.529,9.47,8.381,9.47h0.552   c6.175,0,8.932,1.076,8.932-8.932v-4.843H166.18z"></path>
	<polygon fill-rule="evenodd" clip-rule="evenodd" fill="#00285E" points="135.108,25.093 135.108,58.451 151.429,58.451    151.429,52.103 142.276,52.103 142.276,44.678 149.995,44.678 149.995,38.221 142.276,38.221 142.276,31.55 151.208,31.55    151.208,25.093  "></polygon>
	<polygon fill-rule="evenodd" clip-rule="evenodd" fill="#00285E" points="117.151,25.093 117.151,31.55 121.783,31.55    121.783,58.451 129.062,58.451 129.062,31.55 133.692,31.55 133.692,25.093  "></polygon>
	<polygon fill-rule="evenodd" clip-rule="evenodd" fill="#00285E" points="104.037,25.093 104.037,58.451 119.034,58.451    119.034,52.103 111.205,52.103 111.205,25.093  "></polygon>
	<polygon fill-rule="evenodd" clip-rule="evenodd" fill="#00285E" points="85.072,25.093 85.072,58.451 101.393,58.451    101.393,52.103 92.24,52.103 92.24,44.678 99.959,44.678 99.959,38.221 92.24,38.221 92.24,31.55 101.172,31.55 101.172,25.093     "></polygon>
	<polygon fill-rule="evenodd" clip-rule="evenodd" fill="#00285E" points="61.87,25.093 61.87,58.451 68.707,58.451 68.707,37.791    68.817,37.791 74.661,58.451 82.601,58.451 82.601,25.093 75.653,25.093 75.653,44.785 75.653,44.785 69.699,25.093  "></polygon>
	<path fill-rule="evenodd" clip-rule="evenodd" fill="#00285E" d="M49.159,58.17l-3.088-7.748c-0.661,0.216-1.323,0.323-1.984,0.323   c-3.64,0-6.617-2.798-6.617-6.349s2.978-6.35,6.617-6.35c3.087,0,5.734,2.26,6.285,5.166v15.495h8.271V43.213   c-0.552-7.317-6.947-13.236-14.666-13.236c-8.05,0-14.776,6.457-14.776,14.42s6.727,14.312,14.776,14.312   C45.74,58.708,48.387,58.708,49.159,58.17z"></path>
	<path fill-rule="evenodd" clip-rule="evenodd" fill="#00285E" d="M9.614,17.217c0.771-4.626,4.962-8.178,9.925-8.178   c5.514,0,10.145,4.412,10.145,9.792c0,5.488-4.631,9.9-10.145,9.9l-7.389,7.641c2.315,0.968,4.742,1.506,7.389,1.506   c10.696,0,19.407-8.501,19.407-19.047C38.946,8.501,30.235,0,19.539,0C9.504,0,1.014,7.317,0.021,16.895l0.221,41.645h9.373V17.217   z"></path>
	<path fill-rule="evenodd" clip-rule="evenodd" fill="#00285E" d="M194.924,21.724c2.692,0,5.076-2.021,5.076-4.953   c0-2.83-2.384-4.952-5.076-4.952c-2.797,0-5.075,2.122-5.075,4.952C189.849,19.702,192.127,21.724,194.924,21.724L194.924,21.724z    M190.78,16.771c0-2.324,1.865-4.144,4.144-4.144s4.04,1.819,4.04,4.144c0,2.427-1.762,4.145-4.04,4.145   S190.78,19.197,190.78,16.771L190.78,16.771z M193.888,17.176v2.526h-0.932V13.94h2.175c1.347,0,2.071,0.506,2.071,1.617   c0,1.012-0.725,1.517-1.553,1.618l1.657,2.526h-0.933l-1.45-2.526H193.888L193.888,17.176z M193.888,16.468v-1.819h1.14   c0.519,0,1.243,0.202,1.243,0.909c0,0.91-0.725,0.91-1.347,0.91H193.888z"></path>
</g>
</svg>
